<?xml version="1.0" encoding="UTF-8"?>
<svg id="Layer_1" data-name="Layer 1" xmlns="http://www.w3.org/2000/svg" xmlns:xlink="http://www.w3.org/1999/xlink" viewBox="0 0 950 950">
  <defs>
    <style>
      .cls-1 {
        fill: url(#GradientFill_1-2);
      }

      .cls-1, .cls-2, .cls-3, .cls-4 {
        fill-rule: evenodd;
      }

      .cls-2 {
        fill: url(#GradientFill_1);
      }

      .cls-3 {
        fill: #7cbc28;
      }

      .cls-4 {
        fill: #13489c;
      }
    </style>
    <linearGradient id="GradientFill_1" data-name="GradientFill 1" x1="471.76" y1="564.03" x2="471.76" y2="-35.3" gradientUnits="userSpaceOnUse">
      <stop offset="0" stop-color="#2f4765"/>
      <stop offset="1" stop-color="#00a2c7"/>
    </linearGradient>
    <linearGradient id="GradientFill_1-2" data-name="GradientFill 1" x1="471.76" y1="621.6" x2="471.76" y2="72.22" xlink:href="#GradientFill_1"/>
  </defs>
  <path class="cls-3" d="m172.75,660.89h7.39v19.81c0,3.14.09,5.19.27,6.12.32,1.5,1.07,2.7,2.26,3.6,1.19.91,2.82,1.36,4.88,1.36s3.68-.43,4.74-1.29c1.06-.85,1.7-1.91,1.92-3.15.22-1.25.32-3.32.32-6.22v-20.24h7.38v19.22c0,4.4-.2,7.5-.6,9.31-.4,1.81-1.13,3.34-2.21,4.59-1.07,1.24-2.51,2.24-4.3,2.98-1.8.74-4.15,1.11-7.04,1.11-3.49,0-6.14-.4-7.95-1.21-1.81-.81-3.23-1.86-4.28-3.14-1.05-1.29-1.74-2.64-2.07-4.06-.49-2.09-.72-5.19-.72-9.28v-19.52h0Zm63.47,36.59v-36.59h7.19l14.97,24.43v-24.43h6.87v36.59h-7.42l-14.75-23.86v23.86h-6.87Zm63.05,0v-36.59h7.39v36.59h-7.39Zm50.19,0l-13.08-36.59h8.02l9.25,27.08,8.96-27.08h7.84l-13.1,36.59h-7.89Zm51.2,0v-36.59h27.12v6.19h-19.74v8.11h18.37v6.16h-18.37v9.96h20.44v6.17h-27.82Zm60.54,0v-36.59h15.55c3.91,0,6.75.33,8.52.99,1.77.66,3.19,1.82,4.26,3.5,1.06,1.69,1.59,3.6,1.59,5.77,0,2.74-.81,5.02-2.42,6.81-1.61,1.78-4.03,2.91-7.24,3.37,1.6.94,2.92,1.96,3.96,3.08,1.04,1.12,2.44,3.09,4.2,5.94l4.47,7.14h-8.83l-5.34-7.96c-1.9-2.84-3.19-4.63-3.89-5.37-.7-.74-1.44-1.24-2.22-1.52-.78-.27-2.02-.41-3.72-.41h-1.49v15.27h-7.39Zm7.39-21.12h5.46c3.54,0,5.76-.14,6.64-.44.88-.3,1.57-.82,2.07-1.55.49-.73.75-1.64.75-2.74,0-1.24-.33-2.22-.99-2.98-.66-.76-1.59-1.23-2.79-1.44-.6-.08-2.39-.12-5.39-.12h-5.76v9.28h0Zm54.06,9.22l7.19-.71c.43,2.42,1.3,4.19,2.63,5.32,1.32,1.12,3.1,1.69,5.35,1.69,2.38,0,4.17-.5,5.38-1.52,1.21-1,1.81-2.18,1.81-3.53,0-.87-.26-1.6-.77-2.21-.5-.61-1.39-1.14-2.66-1.58-.86-.31-2.84-.83-5.91-1.6-3.96-.98-6.74-2.19-8.33-3.62-2.25-2.01-3.37-4.46-3.37-7.36,0-1.87.53-3.6,1.58-5.23,1.06-1.62,2.58-2.85,4.57-3.71,1.99-.84,4.39-1.27,7.2-1.27,4.6,0,8.05,1.01,10.38,3.02,2.32,2.02,3.53,4.7,3.65,8.07l-7.39.32c-.32-1.88-1-3.24-2.04-4.05-1.04-.83-2.6-1.24-4.68-1.24s-3.83.43-5.04,1.32c-.78.56-1.18,1.32-1.18,2.27,0,.87.37,1.61,1.1,2.22.93.78,3.19,1.6,6.79,2.44,3.59.85,6.25,1.73,7.97,2.63,1.72.91,3.07,2.15,4.05,3.72.97,1.58,1.46,3.52,1.46,5.83,0,2.09-.58,4.06-1.75,5.89-1.17,1.83-2.81,3.19-4.94,4.08-2.13.89-4.79,1.34-7.96,1.34-4.63,0-8.18-1.06-10.66-3.2-2.48-2.14-3.96-5.26-4.44-9.35h0Zm62.17,11.9v-36.59h7.39v36.59h-7.39Zm49.1,0v-30.39h-10.85v-6.19h29.07v6.19h-10.83v30.39h-7.39Zm78.63,0h-8.04l-3.19-8.31h-14.63l-3.02,8.31h-7.84l14.25-36.59h7.81l14.65,36.59h0Zm-13.6-14.47l-5.04-13.58-4.94,13.58h9.98Zm42.09,2.57l7.19-.71c.43,2.42,1.3,4.19,2.63,5.32,1.32,1.12,3.1,1.69,5.35,1.69,2.38,0,4.17-.5,5.38-1.52,1.21-1,1.81-2.18,1.81-3.53,0-.87-.26-1.6-.77-2.21-.5-.61-1.39-1.14-2.66-1.58-.86-.31-2.84-.83-5.91-1.6-3.96-.98-6.74-2.19-8.33-3.62-2.25-2.01-3.37-4.46-3.37-7.36,0-1.87.53-3.6,1.58-5.23,1.06-1.62,2.58-2.85,4.57-3.71,1.99-.84,4.39-1.27,7.2-1.27,4.6,0,8.05,1.01,10.38,3.02,2.32,2.02,3.53,4.7,3.65,8.07l-7.39.32c-.32-1.88-1-3.24-2.04-4.05-1.04-.83-2.6-1.24-4.68-1.24s-3.83.43-5.04,1.32c-.78.56-1.18,1.32-1.18,2.27,0,.87.37,1.61,1.1,2.22.93.78,3.19,1.6,6.79,2.44,3.59.85,6.25,1.73,7.97,2.63,1.72.91,3.07,2.15,4.05,3.72.97,1.58,1.46,3.52,1.46,5.83,0,2.09-.58,4.06-1.75,5.89-1.17,1.83-2.81,3.19-4.94,4.08-2.13.89-4.79,1.34-7.96,1.34-4.63,0-8.18-1.06-10.66-3.2-2.48-2.14-3.96-5.26-4.44-9.35Z"/>
  <path class="cls-4" d="m30.79,803.18l7.65-55.46c.08-.4.14-.85.18-1.33.04-.49.06-.93.06-1.34v-.67c0-.2.04-.38.12-.55v-1.09c0-.65-.02-1.19-.06-1.64-.04-.45-.14-.83-.3-1.15-.08-.32-.2-.63-.36-.91-.16-.28-.36-.55-.61-.79-.16-.16-.34-.34-.55-.55-.2-.2-.42-.42-.67-.67-.08-.08-.2-.18-.36-.3-.16-.12-.28-.22-.36-.3-.16-.16-.3-.3-.42-.42s-.26-.26-.42-.42l21-.24h4.85l23.06,53.16,19.9-53.16h26.82c-.73.4-1.38.83-1.94,1.27-.57.45-1.05.91-1.46,1.4-.24.24-.45.49-.61.73-.16.24-.28.48-.36.73-.16.32-.28.61-.36.85-.08.24-.16.49-.24.73-.08.16-.14.32-.18.49-.04.16-.06.32-.06.48v1.52c0,.2.04.38.12.55,0,.16.02.32.06.49.04.16.1.32.18.48l7.65,58.13c0,.4.02.73.06.97.04.24.1.49.18.73,0,.08.02.2.06.36.04.16.1.28.18.36,0,.16.02.3.06.43.04.12.1.26.18.42.24.97.57,1.92.97,2.85.4.93.89,1.84,1.46,2.73.57.81,1.21,1.52,1.94,2.12.73.61,1.58,1.07,2.55,1.4h-30.58c.81-.08,1.52-.32,2.12-.73.61-.4,1.11-.89,1.52-1.46.4-.57.75-1.15,1.03-1.76.28-.61.51-1.23.67-1.88.08-.41.14-.79.18-1.15.04-.36.06-.71.06-1.03v-.49c0-.16.04-.32.12-.49v-3.28l-5.58-45.27-23.06,58.5h-4.85l-.61-.24-.49-.24c-.81-.32-1.64-.85-2.49-1.58-.85-.73-1.68-1.66-2.49-2.79-.81-1.13-1.58-2.31-2.31-3.52-.73-1.21-1.42-2.47-2.06-3.76l-20.27-47.21-6.43,46c0,1.21.04,2.31.12,3.28.08.97.24,1.82.49,2.55.16.73.45,1.46.85,2.18.41.73.89,1.42,1.46,2.06.08.08.16.18.24.3.08.12.2.22.36.3.08.16.18.28.3.36.12.08.22.2.3.36.24.24.49.45.73.61.24.16.53.28.85.36h-26.82c.57-.24,1.09-.57,1.58-.97.49-.4.93-.89,1.34-1.46.4-.57.79-1.13,1.15-1.7.36-.57.71-1.13,1.03-1.7.16-.32.28-.63.36-.91.08-.28.2-.59.36-.91.08-.24.16-.51.24-.79.08-.28.16-.59.24-.91.16-.57.26-1.09.3-1.58.04-.49.06-.89.06-1.21v-.24h0Zm622.7-.97l22.94-58.37c.16-.16.26-.38.3-.67.04-.28.1-.59.18-.91.08-.24.14-.48.18-.73.04-.24.06-.49.06-.73,0-.65-.08-1.23-.24-1.76-.16-.53-.45-.95-.85-1.27-.32-.4-.71-.79-1.15-1.15-.45-.36-.91-.71-1.4-1.03l19.05-.24h4.85l28.76,68.81c.49,1.13.97,2.08,1.46,2.85.49.77.97,1.48,1.46,2.12.49.57.99,1.15,1.52,1.76.53.61,1.07,1.15,1.64,1.64.16.08.3.2.42.36.12.16.22.28.3.36l.42.42c.12.12.26.26.42.42.16.08.3.2.43.36.12.16.26.28.42.36.16.16.32.3.49.43.16.12.32.22.49.3h-30.58c.89-.32,1.64-.71,2.25-1.15.61-.45,1.07-.91,1.4-1.4.32-.49.57-.97.73-1.46.16-.48.24-.97.24-1.46,0-.32-.02-.65-.06-.97-.04-.32-.14-.65-.3-.97-.08-.16-.14-.32-.18-.49-.04-.16-.06-.32-.06-.49-.08-.08-.14-.2-.18-.36-.04-.16-.1-.32-.18-.49-.08-.16-.16-.32-.24-.49-.08-.16-.16-.32-.24-.48-.08-.16-.16-.34-.24-.55-.08-.2-.12-.34-.12-.42l-7.65-19.42h-24.76l-7.65,21c-.08.4-.16.79-.24,1.15-.08.36-.16.67-.24.91-.08.24-.12.48-.12.73v.61c0,.49.04.93.12,1.34.08.4.2.77.36,1.09.16.32.38.65.67.97.28.32.59.61.91.85.16.16.32.34.49.55.16.2.36.38.61.55.16.08.28.16.36.24.08.08.2.16.36.24.08.08.18.16.3.24.12.08.22.12.3.12h-28.76c.16,0,.32-.06.49-.18.16-.12.32-.22.49-.3.16-.16.32-.3.48-.42.16-.12.32-.22.49-.3,1.38-1.05,2.55-2.08,3.52-3.09.97-1.01,1.78-2.04,2.43-3.09.65-1.05,1.19-2.06,1.64-3.03.44-.97.79-1.86,1.03-2.67v-.24h0Zm24.88-25.85h18.08l-9.1-23.3-8.98,23.3h0Zm66.99,27.79v-54.49c0-1.86-.14-3.52-.42-4.98-.28-1.46-.67-2.63-1.15-3.52-.49-.89-.99-1.66-1.52-2.31-.53-.65-1.07-1.17-1.64-1.58-.08-.08-.18-.14-.3-.18-.12-.04-.22-.1-.3-.18-.16,0-.28-.02-.36-.06-.08-.04-.16-.1-.24-.18-.16-.16-.34-.3-.55-.42-.2-.12-.38-.22-.55-.3l-.36-.24-.24-.24h4.85c1.13.08,2.37.12,3.7.12h14.38l43.93,55.58v-42.48c0-1.78-.18-3.42-.55-4.92-.36-1.5-.87-2.85-1.52-4.07-.73-1.13-1.56-2.04-2.49-2.73-.93-.69-1.96-1.15-3.1-1.4l23.91-.24h4.85c-.24.32-.49.55-.73.67-.24.12-.49.26-.73.42-.24.08-.46.18-.67.3-.2.12-.38.26-.55.42-.57.32-1.13.75-1.7,1.27-.57.53-1.05,1.11-1.46,1.76-.41.57-.77,1.52-1.09,2.85-.32,1.33-.57,2.97-.73,4.91v71.36h-4.85c-.4,0-.85-.06-1.34-.18-.49-.12-.97-.26-1.46-.42-.57-.24-1.11-.49-1.64-.73-.53-.24-1.03-.53-1.52-.85-.57-.32-1.09-.63-1.58-.91-.49-.28-.97-.59-1.46-.91-.49-.4-.95-.79-1.4-1.15-.44-.36-.87-.75-1.27-1.15-.24-.16-.44-.32-.61-.49-.16-.16-.32-.32-.49-.49-.08-.16-.18-.32-.3-.49-.12-.16-.26-.32-.42-.48l-41.02-52.43v44.54c0,1.78.12,3.28.36,4.49.24,1.21.61,2.26,1.09,3.16.49.81,1.13,1.62,1.94,2.43.81.81,1.78,1.58,2.91,2.31h.24-4.85.24-22.94c.16-.08.34-.18.55-.3.2-.12.42-.22.67-.3.24-.16.47-.32.67-.49.2-.16.38-.32.55-.48.65-.41,1.23-.89,1.76-1.46.53-.57,1.03-1.17,1.52-1.82.4-.65.77-1.5,1.09-2.55.32-1.05.61-2.31.85-3.76v-.24h0Zm91.87-1.94l22.94-58.37c.16-.16.26-.38.3-.67.04-.28.1-.59.18-.91.08-.24.14-.48.18-.73.04-.24.06-.49.06-.73,0-.65-.08-1.23-.24-1.76-.16-.53-.44-.95-.85-1.27-.32-.4-.71-.79-1.15-1.15-.45-.36-.91-.71-1.4-1.03l19.05-.24h4.85l28.76,68.81c.49,1.13.97,2.08,1.46,2.85.49.77.97,1.48,1.46,2.12.49.57.99,1.15,1.52,1.76.53.61,1.07,1.15,1.64,1.64.16.08.3.2.42.36.12.16.22.28.3.36.16.16.3.3.42.42.12.12.26.26.43.42.16.08.3.2.42.36.12.16.26.28.42.36.16.16.32.3.49.43.16.12.32.22.49.3h-30.58c.89-.32,1.64-.71,2.25-1.15.61-.45,1.07-.91,1.4-1.4.32-.49.57-.97.73-1.46.16-.48.24-.97.24-1.46,0-.32-.02-.65-.06-.97-.04-.32-.14-.65-.3-.97-.08-.16-.14-.32-.18-.49-.04-.16-.06-.32-.06-.49-.08-.08-.14-.2-.18-.36-.04-.16-.1-.32-.18-.49-.08-.16-.16-.32-.24-.49-.08-.16-.16-.32-.24-.48-.08-.16-.16-.34-.24-.55-.08-.2-.12-.34-.12-.42l-7.65-19.42h-24.76l-7.65,21c-.08.4-.16.79-.24,1.15-.08.36-.16.67-.24.91-.08.24-.12.48-.12.73v.61c0,.49.04.93.12,1.34.08.4.2.77.36,1.09.16.32.38.65.67.97.28.32.59.61.91.85.16.16.32.34.49.55.16.2.36.38.61.55.16.08.28.16.36.24.08.08.2.16.36.24.08.08.18.16.3.24.12.08.22.12.3.12h-28.76c.16,0,.32-.06.49-.18.16-.12.32-.22.49-.3.16-.16.32-.3.48-.42.16-.12.32-.22.49-.3,1.38-1.05,2.55-2.08,3.52-3.09.97-1.01,1.78-2.04,2.43-3.09.65-1.05,1.19-2.06,1.64-3.03.44-.97.79-1.86,1.03-2.67v-.24h0Zm24.88-25.85h18.08l-9.1-23.3-8.98,23.3h0Zm-713.6,28.64v-55.34c0-1.05-.06-2.16-.18-3.34-.12-1.17-.26-2.33-.42-3.46-.24-1.13-.71-2.25-1.4-3.34-.69-1.09-1.64-2.12-2.85-3.1l39.2-.24c.49.16.97.24,1.46.24s.97-.04,1.46-.12c.24,0,.49-.02.73-.06.24-.04.49-.1.73-.18.16,0,.36-.06.61-.18.24-.12.49-.22.73-.3l4.85-.12v15.17h-4.85c-.81-.89-1.82-1.7-3.03-2.43-1.21-.73-2.55-1.25-4.01-1.58-1.13-.32-2.37-.57-3.7-.73-1.34-.16-2.69-.28-4.07-.36-.4.08-.83.12-1.27.12h-1.4c-.81.08-1.68.14-2.61.18-.93.04-1.84.1-2.73.18v21.72h6.55c.97.16,1.88.24,2.73.24s1.64-.04,2.37-.12c.73,0,1.38-.08,1.94-.24.57-.16,1.09-.36,1.58-.61l4.85-.12v13.35h-4.85c-.49-.57-1.09-1.07-1.82-1.52-.73-.45-1.58-.83-2.55-1.15-1.05-.32-2.1-.57-3.16-.73-1.05-.16-2.14-.24-3.28-.24l-.36-.12h-4v28.52c.24.16.49.28.73.36.24.08.49.12.73.12.16,0,.3.02.42.06.12.04.26.06.43.06.08.08.2.12.36.12h.36c1.13.16,2.27.32,3.4.49,1.13.16,2.31.32,3.52.49.81.08,1.6.16,2.37.24.77.08,1.56.16,2.37.24.16-.08.34-.12.55-.12h.67c.81-.08,1.6-.18,2.37-.3.77-.12,1.56-.26,2.37-.42.73-.16,1.48-.36,2.25-.61.77-.24,1.56-.48,2.37-.73,1.62-.57,3.18-1.29,4.67-2.18,1.5-.89,2.97-1.98,4.43-3.28l4.85-.12-6.67,16.14h-54.61c.41-.32.79-.69,1.15-1.09.36-.4.71-.81,1.03-1.21.16-.16.3-.34.43-.55.12-.2.26-.42.42-.67.08-.16.2-.34.36-.55.16-.2.28-.38.36-.55.16-.4.32-.83.49-1.27.16-.45.28-.91.36-1.4.08-.49.14-.97.18-1.46.04-.49.06-1.01.06-1.58v-.24h0Zm66.99.97v-59.22c0-2.1-.12-3.88-.36-5.34-.24-1.46-.57-2.51-.97-3.16-.49-.65-.97-1.21-1.46-1.7-.49-.49-1.05-.89-1.7-1.21l-.73-.36-.61-.49,26.82-.12h4.85c4.05.16,7.77.63,11.16,1.4,3.4.77,6.47,1.92,9.22,3.46,2.75,1.54,4.81,3.6,6.19,6.19,1.38,2.59,2.06,5.66,2.06,9.22,0,2.67-.38,5.1-1.15,7.28-.77,2.18-1.96,4.17-3.58,5.95-1.54,1.78-3.2,3.3-4.98,4.55-1.78,1.25-3.6,2.25-5.46,2.97-.32.08-.65.18-.97.3-.32.12-.65.26-.97.43-.32.08-.65.16-.97.24-.32.08-.65.16-.97.24.32.41.63.81.91,1.21.28.4.59.81.91,1.21.32.32.65.67.97,1.03.32.36.65.75.97,1.15.65.89,1.29,1.76,1.94,2.61.65.85,1.29,1.72,1.94,2.61.65.81,1.31,1.64,2,2.49.69.85,1.4,1.72,2.12,2.61,1.94,2.51,3.92,4.94,5.95,7.28,2.02,2.35,4.05,4.57,6.07,6.67,2.1,2.19,4.27,4.13,6.49,5.83,2.23,1.7,4.55,3.12,6.98,4.25h-20.63c-.41,0-.79-.02-1.15-.06-.36-.04-.75-.1-1.15-.18-.32-.16-.69-.3-1.09-.42-.41-.12-.77-.3-1.09-.55-.4-.16-.79-.36-1.15-.61-.36-.24-.75-.49-1.15-.73-.81-.49-1.64-1.15-2.49-2-.85-.85-1.76-1.8-2.73-2.85l-24.76-33.74c.49-.08.99-.2,1.52-.36.53-.16,1.03-.36,1.52-.61.49-.16.95-.32,1.4-.49.45-.16.91-.32,1.4-.49.41-.16.83-.32,1.27-.49.45-.16.87-.36,1.27-.61.4-.16.81-.32,1.21-.49.41-.16.77-.32,1.09-.49,1.7-.81,3.22-1.64,4.55-2.49,1.33-.85,2.41-1.76,3.22-2.73.89-.89,1.54-1.98,1.94-3.28.41-1.3.65-2.71.73-4.25v-1.21l-.12-.48v-.49c0-1.86-.32-3.54-.97-5.04-.65-1.5-1.66-2.77-3.03-3.82-1.05-.89-2.35-1.62-3.88-2.18-1.54-.57-3.24-.93-5.1-1.09h-.49c-.16.08-.28.12-.36.12h-.24c-.32.08-.65.14-.97.18-.32.04-.65.06-.97.06-.41.08-.77.14-1.09.18-.32.04-.65.1-.97.18v60.92c0,1.38.12,2.61.36,3.7.24,1.09.61,2.08,1.09,2.97.49.89,1.07,1.68,1.76,2.37s1.52,1.19,2.49,1.52h-29.73c.97-.08,1.82-.41,2.55-.97.73-.57,1.33-1.25,1.82-2.06.49-.89.85-1.86,1.09-2.91.24-1.05.36-2.18.36-3.4v-.24h0Zm63.11-27.67v.24c.4,6.63,1.86,12.38,4.37,17.23,2.51,4.85,6.11,8.86,10.8,12.01,4.77,3.16,9.73,5.48,14.87,6.98,5.14,1.5,10.54,2.25,16.2,2.25h7.4c.08-.08.2-.12.36-.12h.49c1.38-.08,2.75-.22,4.13-.42,1.38-.2,2.75-.42,4.13-.67,1.38-.16,2.73-.42,4.07-.79,1.33-.36,2.65-.83,3.94-1.4l4.73-14.2-4.85.12c-.65.32-1.27.65-1.88.97-.61.32-1.23.61-1.88.85-.57.32-1.13.61-1.7.85-.57.24-1.13.48-1.7.73-1.21.57-2.43,1.05-3.64,1.46-1.21.4-2.43.73-3.64.97-1.21.32-2.53.55-3.94.67-1.42.12-2.93.14-4.55.06l-.24.12c-4.13-.24-7.85-1.19-11.17-2.85-3.32-1.66-6.15-3.98-8.5-6.98-2.59-3.32-4.59-6.78-6.01-10.38-1.42-3.6-2.2-7.38-2.37-11.35-.08-.16-.12-.34-.12-.55v-1.76c0-3.64.53-7.08,1.58-10.32,1.05-3.24,2.67-6.31,4.85-9.22,1.94-2.59,4.37-4.61,7.28-6.07,2.91-1.46,6.31-2.31,10.19-2.55,1.29.08,2.63.2,4.01.36,1.38.16,2.83.4,4.37.73,2.1.4,4.25,1.07,6.43,2,2.18.93,4.49,2.04,6.92,3.34h4.85v-14.2c-.32-.08-.65-.16-.97-.24-.32-.08-.65-.16-.97-.24-.32,0-.65-.04-.97-.12-.32-.08-.65-.16-.97-.24-.65-.16-1.31-.3-2-.43-.69-.12-1.36-.22-2-.3-1.29-.16-2.61-.32-3.94-.49-1.34-.16-2.65-.28-3.94-.36-1.29-.16-2.53-.26-3.7-.3-1.17-.04-2.33-.1-3.46-.18l-4.85.12c-7.44,0-13.77.99-18.99,2.97-5.22,1.98-9.32,4.95-12.32,8.92-2.99,3.96-5.36,8.11-7.1,12.44-1.74,4.33-2.81,8.88-3.22,13.65-.08.32-.14.63-.18.91-.04.28-.06.55-.06.79-.08.32-.12.63-.12.91v4.07h0Zm84.1,11.41v-44.9c0-1.05-.12-2.06-.36-3.03-.24-.97-.57-1.86-.97-2.67-.48-.81-1.01-1.58-1.58-2.31-.57-.73-1.21-1.46-1.94-2.18l22.09-.24h4.85c-.32.41-.67.89-1.03,1.46-.36.57-.71,1.17-1.03,1.82-.16.32-.32.67-.49,1.03-.16.36-.28.71-.36,1.03-.16.4-.28.77-.36,1.09-.08.32-.16.69-.24,1.09-.08.32-.14.63-.18.91-.04.28-.06.55-.06.79-.08.24-.12.49-.12.73v43.57c0,3.32.34,6.15,1.03,8.5.69,2.35,1.68,4.25,2.97,5.7,1.38,1.46,2.81,2.63,4.31,3.52,1.5.89,3.05,1.54,4.67,1.94.41.08.83.18,1.27.3.45.12.91.18,1.4.18h.36c2.67-.16,5.1-.61,7.28-1.34,2.18-.73,4.05-1.74,5.58-3.03,1.86-1.54,3.24-3.28,4.13-5.22.89-1.94,1.34-4.13,1.34-6.55v-43.2c0-1.78-.12-3.42-.36-4.92-.24-1.5-.61-2.77-1.09-3.82-.49-1.13-1.09-2.12-1.82-2.97-.73-.85-1.54-1.64-2.43-2.37l22.94-.24h4.85c-.97,1.05-1.78,2.12-2.43,3.22-.65,1.09-1.13,2.25-1.46,3.46-.32,1.21-.57,2.49-.73,3.82-.16,1.33-.24,2.69-.24,4.07v55.22c0,1.54.1,2.91.3,4.13.2,1.21.46,2.31.79,3.28.4.97.99,1.8,1.76,2.49.77.69,1.76,1.19,2.97,1.52h-23.06v-2.79c-.81.65-1.7,1.23-2.67,1.76-.97.53-2.06.95-3.28,1.27-1.46.57-3.2.99-5.22,1.27-2.02.28-4.33.42-6.92.42h-4.85c-4.85,0-9.04-.55-12.56-1.64-3.52-1.09-6.37-2.77-8.56-5.04-2.18-2.27-3.94-4.63-5.28-7.1-1.33-2.47-2.25-5.08-2.73-7.83-.08-.24-.14-.49-.18-.73-.04-.24-.06-.53-.06-.85-.08-.24-.12-.48-.12-.73v-.73c-.08-.49-.12-.97-.12-1.46v-1.7h0Zm126.22,15.29v-59.71c-.08-.16-.12-.3-.12-.42v-1.15c-.08-.08-.12-.2-.12-.36v-.49c-.08-.4-.16-.77-.24-1.09-.08-.32-.16-.69-.24-1.09-.16-.32-.32-.67-.49-1.03-.16-.36-.32-.71-.48-1.03-.32-.65-.75-1.23-1.27-1.76-.53-.53-1.15-.95-1.88-1.27l28.76-.24h4.85c3.8.16,7.26.69,10.38,1.58,3.12.89,5.85,2.18,8.19,3.88,2.35,1.78,4.13,3.82,5.34,6.13,1.21,2.31,1.82,4.87,1.82,7.71,0,1.7-.26,3.34-.79,4.92-.53,1.58-1.35,3.09-2.49,4.55-1.05,1.46-2.27,2.67-3.64,3.64-1.38.97-2.87,1.7-4.49,2.18.32.08.65.18.97.3.32.12.65.26.97.42.32.08.65.18.97.3.32.12.65.26.97.42,1.86.81,3.68,1.78,5.46,2.91,1.78,1.13,3.44,2.47,4.98,4.01,1.62,1.54,2.81,3.42,3.58,5.64.77,2.23,1.15,4.88,1.15,7.95-.16,3.4-.75,6.35-1.76,8.86-1.01,2.51-2.45,4.57-4.31,6.19-1.78,1.7-3.68,3.13-5.7,4.31-2.02,1.17-4.13,2.08-6.31,2.73-1.29.32-2.55.61-3.76.85-1.21.24-2.39.44-3.52.61-1.21.08-2.33.12-3.34.12h-38.29c.16-.08.34-.18.55-.3.2-.12.38-.22.55-.3.16-.16.34-.32.55-.49.2-.16.34-.32.42-.48.57-.49,1.03-1.03,1.4-1.64.36-.61.63-1.19.79-1.76.16-.65.3-1.42.43-2.31.12-.89.18-1.9.18-3.03v-.24h0Zm18.2.97c1.05.24,2.08.43,3.09.55,1.01.12,2,.22,2.97.3.24,0,.46.02.67.06.2.04.42.06.67.06s.47.02.67.06c.2.04.43.06.67.06,2.18-.16,4.17-.45,5.95-.85,1.78-.4,3.44-1.01,4.98-1.82,1.7-.89,2.97-2.25,3.82-4.07.85-1.82,1.27-4.11,1.27-6.86v-1.7c0-2.02-.4-3.94-1.21-5.76-.81-1.82-2.02-3.5-3.64-5.04-1.54-1.46-3.72-2.57-6.55-3.34-2.83-.77-6.31-1.19-10.44-1.27h-.97c-.32.08-.63.12-.91.12s-.63.04-1.03.12v29.37h0Zm0-38.23c.24.16.49.26.73.3.24.04.49.1.73.18h.18s.1-.04.18-.12h.24c1.86-.16,3.68-.44,5.46-.85,1.78-.4,3.44-1.01,4.98-1.82,1.62-.73,2.81-1.76,3.58-3.09.77-1.34,1.15-2.89,1.15-4.67v-1.21l-.12-.48v-.49c-.49-2.75-1.29-4.98-2.43-6.67-1.13-1.7-2.55-2.79-4.25-3.28-1.29-.4-2.81-.71-4.55-.91-1.74-.2-3.7-.34-5.89-.42v23.54h0Zm57.4,21.97v-44.9c0-1.05-.12-2.06-.36-3.03-.24-.97-.57-1.86-.97-2.67-.49-.81-1.01-1.58-1.58-2.31-.57-.73-1.21-1.46-1.94-2.18l22.09-.24h4.85c-.32.41-.67.89-1.03,1.46-.36.57-.71,1.17-1.03,1.82-.16.32-.32.67-.49,1.03-.16.36-.28.71-.36,1.03-.16.4-.28.77-.36,1.09-.08.32-.16.69-.24,1.09-.08.32-.14.63-.18.91-.04.28-.06.55-.06.79-.08.24-.12.49-.12.73v43.57c0,3.32.34,6.15,1.03,8.5.69,2.35,1.68,4.25,2.97,5.7,1.38,1.46,2.81,2.63,4.31,3.52,1.5.89,3.05,1.54,4.67,1.94.4.08.83.18,1.27.3.44.12.91.18,1.4.18h.36c2.67-.16,5.1-.61,7.28-1.34,2.18-.73,4.05-1.74,5.58-3.03,1.86-1.54,3.24-3.28,4.13-5.22.89-1.94,1.34-4.13,1.34-6.55v-43.2c0-1.78-.12-3.42-.36-4.92-.24-1.5-.61-2.77-1.09-3.82-.48-1.13-1.09-2.12-1.82-2.97-.73-.85-1.54-1.64-2.43-2.37l22.94-.24h4.85c-.97,1.05-1.78,2.12-2.43,3.22-.65,1.09-1.13,2.25-1.46,3.46-.32,1.21-.57,2.49-.73,3.82-.16,1.33-.24,2.69-.24,4.07v55.22c0,1.54.1,2.91.3,4.13.2,1.21.47,2.31.79,3.28.41.97.99,1.8,1.76,2.49.77.69,1.76,1.19,2.97,1.52h-23.06v-2.79c-.81.65-1.7,1.23-2.67,1.76-.97.53-2.06.95-3.28,1.27-1.46.57-3.2.99-5.22,1.27s-4.33.42-6.92.42h-4.85c-4.85,0-9.04-.55-12.56-1.64-3.52-1.09-6.37-2.77-8.56-5.04-2.18-2.27-3.94-4.63-5.28-7.1-1.33-2.47-2.24-5.08-2.73-7.83-.08-.24-.14-.49-.18-.73-.04-.24-.06-.53-.06-.85-.08-.24-.12-.48-.12-.73v-.73c-.08-.49-.12-.97-.12-1.46v-1.7Z"/>
  <path class="cls-2" d="m514.62,559.49c0,23.61-19.25,42.86-42.86,42.86s-42.86-19.25-42.86-42.86V237.44c0-33.41,32.56-60.71,63.11-97.87,12.83-15.6,20-45.87,22.61-66.62v486.53Z"/>
  <path class="cls-1" d="m408.05,158.68v399.65c0,12.58,4.66,23.94,11.58,35.91-62.19-21.79-97.31-83.29-97.31-140.17v-130.91c0-33.41,32.56-60.71,63.11-97.87,12.83-15.6,20-45.87,22.61-66.62h0Zm127.43,0c2.61,20.74,9.78,51.02,22.61,66.62,30.55,37.15,63.11,64.46,63.11,97.87v130.91c0,56.88-35.12,118.38-97.31,140.17,6.92-11.97,11.58-23.33,11.58-35.91V158.68Z"/>
</svg>