<?xml version="1.0" encoding="UTF-8"?>
<!DOCTYPE svg PUBLIC "-//W3C//DTD SVG 1.1//EN" "http://www.w3.org/Graphics/SVG/1.1/DTD/svg11.dtd">
<!-- Creator: CorelDRAW -->
<svg xmlns="http://www.w3.org/2000/svg" xml:space="preserve" width="8.5in" height="11in" version="1.1" style="shape-rendering:geometricPrecision; text-rendering:geometricPrecision; image-rendering:optimizeQuality; fill-rule:evenodd; clip-rule:evenodd"
viewBox="0 0 8500 11000"
 xmlns:xlink="http://www.w3.org/1999/xlink">
 <defs>
  <style type="text/css">
   <![CDATA[
    .str0 {stroke:#92ABD1;stroke-width:10.3425}
    .str1 {stroke:#FCDE95;stroke-width:10.3425}
    .fil0 {fill:none}
    .fil1 {fill:#2657A3}
    .fil2 {fill:#F9BE2C}
    .fil3 {fill:white}
   ]]>
  </style>
 </defs>
 <g id="Layer_x0020_1">
  <metadata id="CorelCorpID_0Corel-Layer"/>
  <g id="Lambang_x0020_UMK.cdr">
   <path class="fil0 str0" d="M804 7185c499,-18 902,-372 978,-863 8,-51 12,-127 12,-229 0,-275 2,-550 2,-824 0,-187 158,-313 340,-295 3,1 5,-1 4,-4 -44,-170 -201,-278 -369,-270 -260,11 -410,212 -410,459 0,333 -1,665 -2,997 -1,419 -404,716 -801,542 -214,-95 -352,-308 -352,-545 0,-408 1,-816 1,-1223 0,-298 -116,-606 -357,-792 -261,-200 -601,-183 -786,105 -7,11 -15,28 -24,50 -2,4 0,6 4,5 394,-76 729,230 729,626 0,376 0,753 0,1129 0,109 3,185 8,229 22,187 90,353 203,500 197,254 461,389 792,403"/>
   <path class="fil0 str1" d="M82 7185l72 -7c5,0 6,-2 1,-5 -203,-133 -354,-309 -453,-530 -8,-15 -18,-30 -31,-42 -123,-116 -186,-261 -187,-433 -1,-173 -1,-511 1,-1012 0,-80 -13,-151 -42,-212 -147,-317 -642,-344 -752,26 -2,4 0,6 4,5 144,-19 290,63 339,201 12,32 17,87 17,164 0,272 1,543 2,815 2,564 419,1007 985,1030"/>
   <path class="fil0 str0" d="M-19 3487c2,1 2,4 0,5l-501 221c-19,8 -19,35 0,44l189 83c3,1 7,1 10,0l738 -326c4,-1 8,-1 12,0l737 325c4,2 8,2 12,0l187 -82c19,-9 19,-36 0,-44l-500 -221c-2,-1 -2,-4 0,-5l135 -60c6,-2 6,-5 0,-7l-509 -225c-3,-1 -6,-4 -6,-8l-59 -289c-2,-10 -4,-10 -6,0l-59 290c0,0 -3,6 -6,7l-512 226c-3,1 -3,4 0,5l138 61"/>
   <path class="fil0 str1" d="M877 3902l-449 -198c-3,-1 -7,-1 -10,0l-454 200c0,0 0,2 0,2 201,135 353,312 455,533 2,4 4,4 6,0 112,-219 247,-394 453,-529 4,-3 4,-6 -1,-8"/>
   <path class="fil0 str1" d="M741 4460c-65,142 -99,290 -99,447 -2,400 -3,800 -3,1200 0,151 -20,254 -95,373 -2,4 -2,7 1,9 135,98 316,114 462,19 3,-2 5,-5 6,-8 40,-113 59,-222 59,-329 0,-383 0,-767 0,-1150 0,-109 4,-185 13,-229 62,-337 373,-555 716,-494 5,0 6,-1 4,-5 -73,-162 -217,-272 -394,-286 -300,-22 -552,196 -670,453"/>
   <path class="fil0 str0" d="M4483 4274c0,0 -4,-3 -4,-3l-139 0c0,0 -4,3 -4,3l0 859c0,0 4,4 4,4l139 0c0,0 4,-4 4,-4l0 -859"/>
   <path class="fil0 str0" d="M6086 4788l57 0c4,0 6,2 8,5 45,94 91,187 140,279 35,69 102,68 174,64 3,-1 5,-3 3,-6 -34,-101 -101,-215 -172,-354 -2,-3 0,-7 3,-8 199,-86 211,-400 3,-480 -30,-11 -77,-17 -141,-17 -75,0 -149,0 -225,0 0,0 -4,4 -4,4l0 855c0,4 2,7 7,7l135 0c4,0 6,-2 6,-6l0 -337c0,-4 2,-6 6,-6"/>
   <path class="fil0 str0" d="M7344 4274c0,0 -3,-3 -3,-3l-140 0c0,0 -3,3 -3,3l0 859c0,0 3,4 3,4l140 0c0,0 3,-4 3,-4l0 -859"/>
   <path class="fil0 str0" d="M7629 4400c0,0 4,5 4,5l0 727c0,0 4,4 4,4l140 1c0,0 5,-5 5,-5l0 -727c0,0 4,-4 4,-4l193 -1c0,0 4,-4 4,-4l0 -122c0,0 -4,-4 -4,-4l-543 0c0,0 -4,4 -4,4l0 122c0,0 4,5 4,5l193 -1"/>
   <path class="fil0 str0" d="M3208 4961c-104,90 -222,-12 -222,-126 0,-161 0,-322 0,-483 0,-33 -15,-57 -42,-72 -27,-14 -67,-9 -98,-8 -4,0 -6,2 -6,5 -3,277 -2,468 0,575 10,380 567,380 570,-20 0,-114 0,-299 0,-554 0,-4 -1,-6 -5,-6 -91,-4 -142,-1 -142,109 0,140 1,279 1,419 0,59 -11,123 -56,161"/>
   <path class="fil0 str0" d="M4021 4853c-4,5 -7,5 -11,-1 -89,-177 -177,-353 -265,-528 -17,-33 -44,-51 -81,-54 -45,-4 -92,11 -92,59 1,267 1,535 1,802 0,4 2,5 5,5l126 0c4,0 6,-2 6,-6 -1,-189 -1,-379 0,-568 0,-6 1,-9 3,-10 4,-2 8,-1 10,4 87,175 173,349 258,521 18,37 47,57 88,61 42,3 91,-10 91,-56 0,-268 0,-536 0,-804 0,-4 -3,-7 -7,-7l-124 1c-4,0 -6,2 -6,6 0,185 0,371 2,557 0,9 -2,15 -4,18"/>
   <path class="fil0 str0" d="M4901 5004c-3,1 -7,-4 -7,-4l-164 -726c0,0 -3,-3 -3,-3l-150 0c-4,0 -6,3 -5,7 56,225 113,449 169,674 28,112 41,191 169,185 78,-3 116,-54 134,-124 61,-244 123,-489 186,-734 1,-4 -2,-8 -6,-8l-144 0c-3,0 -7,6 -7,6 -55,239 -110,477 -164,716 -2,6 -4,10 -8,11"/>
   <path class="fil0 str0" d="M5469 4607l1 -197c0,-4 2,-7 6,-7l301 0c3,0 6,-2 6,-6l0 -119c0,-4 -2,-7 -6,-7l-449 0c0,0 -5,2 -5,5 0,256 -1,512 -1,768 0,35 14,61 40,77 16,10 42,15 77,15 112,1 225,1 337,0 4,0 6,-2 6,-6l0 -120c0,-4 -2,-5 -6,-5l-299 0c-4,0 -6,-3 -6,-7l0 -253c0,-4 2,-7 7,-7l289 0c0,0 5,-4 5,-4l0 -115c0,0 -5,-5 -5,-5l-291 0c-4,0 -7,-3 -7,-7"/>
   <path class="fil0 str0" d="M6753 4410c72,-32 120,-11 185,25 48,26 92,-6 125,-42 2,-3 2,-5 0,-8 -91,-98 -201,-133 -332,-104 -86,19 -142,67 -168,143 -64,194 128,281 262,350 61,31 109,75 93,149 -19,85 -119,106 -195,83 -28,-9 -64,-36 -91,-42 -43,-10 -77,24 -100,54 -1,2 -1,4 0,6 113,146 404,156 504,-12 66,-109 26,-243 -72,-317 -66,-49 -142,-83 -214,-122 -71,-39 -76,-129 3,-163"/>
   <path class="fil0 str0" d="M8390 4891l55 240c0,4 3,6 6,6l143 0c5,0 6,-3 5,-7 -61,-245 -123,-489 -184,-734 -15,-62 -45,-116 -114,-124 -139,-17 -154,66 -183,183 -55,222 -111,447 -167,675 -1,4 0,7 5,7l144 -1c4,0 7,-2 8,-6l52 -238c2,-4 4,-7 9,-7l215 1c3,0 6,2 6,5"/>
   <path class="fil0 str0" d="M9001 4408c23,8 51,33 77,37 36,4 75,-26 98,-53 3,-3 3,-6 0,-9 -88,-91 -191,-126 -309,-106 -53,9 -96,27 -129,55 -104,87 -94,250 12,332 47,36 105,70 174,103 64,31 121,71 109,150 -11,64 -67,94 -129,98 -33,2 -60,-3 -83,-14 -72,-38 -116,-67 -174,17 -3,3 -3,6 0,9 83,102 236,129 357,93 119,-36 197,-141 173,-265 -31,-160 -187,-213 -311,-281 -61,-32 -83,-104 -22,-151 44,-34 96,-39 157,-15"/>
   <path class="fil0 str0" d="M9182 5645c61,-25 117,-22 169,10 64,40 96,17 144,-29 3,-3 3,-7 1,-10 -88,-90 -189,-126 -305,-108 -61,9 -109,31 -146,65 -71,67 -84,181 -30,265 36,56 103,100 159,126 77,37 203,90 176,192 -23,88 -114,107 -192,86 -78,-21 -121,-94 -194,10 -3,3 -3,6 0,10 91,110 256,133 380,85 115,-44 180,-154 149,-277 -35,-138 -189,-201 -307,-261 -72,-37 -87,-128 -4,-164"/>
   <path class="fil0 str0" d="M2697 5767c5,-14 9,-14 13,1 48,188 94,374 140,556 14,58 87,56 136,46 25,-6 41,-22 47,-48 45,-181 90,-361 135,-542 2,-8 5,-14 8,-19 4,-6 7,-6 8,2 5,28 8,58 10,89 12,172 25,344 39,517 0,4 2,6 6,6l129 0c0,0 5,-5 5,-5 -17,-250 -33,-500 -49,-750 -4,-62 2,-93 -63,-108 -50,-12 -149,-13 -166,49 -47,178 -95,357 -143,540 -4,13 -10,15 -19,4 -2,-2 -3,-7 -6,-16 -44,-170 -89,-339 -135,-508 -19,-70 -81,-86 -146,-75 -50,8 -81,17 -85,73 -18,263 -35,527 -51,791 0,0 5,5 5,5l129 -1c4,0 6,-2 6,-6 14,-191 29,-382 43,-574 1,-13 3,-22 4,-27"/>
   <path class="fil0 str0" d="M3539 6135c34,202 273,305 440,183 84,-62 124,-159 124,-262 0,-182 0,-363 0,-545 0,-4 -2,-6 -6,-6 -94,-6 -142,2 -142,111 0,143 0,286 0,428 0,66 -20,138 -81,168 -107,54 -196,-46 -196,-145 0,-161 0,-322 0,-482 0,-34 -14,-57 -42,-72 -27,-14 -67,-9 -99,-9 -4,0 -6,2 -6,6 0,160 -1,320 -2,480 0,56 3,104 10,145"/>
   <path class="fil0 str0" d="M4652 6003c109,-51 161,-139 155,-264 -5,-131 -106,-231 -238,-235 -43,-1 -135,-1 -276,1 -4,0 -6,2 -6,5l0 853c0,5 2,7 6,7l137 0c0,0 5,-4 5,-4l0 -338c0,-4 2,-7 6,-7l56 0c4,0 7,2 9,6 37,77 75,153 112,229 51,104 88,121 196,113 11,-1 14,-6 9,-16l-173 -347c0,0 2,-3 2,-3"/>
   <path class="fil0 str0" d="M5075 5507c0,0 -4,-3 -4,-3l-139 0c0,0 -4,3 -4,3l0 859c0,0 4,4 4,4l139 0c0,0 4,-4 4,-4l0 -859"/>
   <path class="fil0 str0" d="M5597 6125l54 239c0,3 4,5 7,5l144 0c4,0 5,-2 4,-5 -59,-235 -118,-470 -177,-703 -25,-98 -48,-163 -158,-157 -68,3 -111,41 -129,112 -60,245 -122,494 -185,748 0,0 1,5 4,5l149 0c0,0 4,-4 4,-4l54 -241c0,-4 3,-6 6,-6l215 1c5,0 7,2 8,6"/>
   <path class="fil0 str0" d="M6267 5834l0 -324c0,-4 -2,-6 -6,-6l-135 0c-4,0 -6,2 -6,6l0 853c0,4 2,6 6,6l138 0c0,0 3,-3 3,-3l0 -382c0,-4 2,-6 6,-7 64,-6 103,8 127,70 40,106 81,211 122,318 1,3 3,5 7,5l146 0c5,0 6,-3 5,-7 -48,-126 -95,-253 -143,-378 -13,-33 -38,-63 -77,-93 -4,-2 -4,-5 -1,-8 28,-30 49,-57 63,-82 23,-41 75,-138 157,-291 2,-4 1,-7 -4,-7l-155 0c0,0 -6,1 -7,4 -50,95 -100,190 -150,284 -21,38 -51,54 -91,48 0,0 -5,-6 -5,-6"/>
   <path class="fil0 str0" d="M6984 6191c-48,-42 -56,-109 -56,-170 2,-137 3,-274 3,-411 0,-106 -56,-107 -142,-106 -4,0 -6,2 -6,6 0,164 2,328 -1,491 0,51 3,98 11,141 30,163 203,259 360,209 135,-42 200,-169 200,-307 0,-178 -1,-355 -1,-533 0,-4 -2,-6 -6,-6 -104,-8 -140,8 -140,118 0,142 -1,283 -1,424 0,42 -8,76 -23,104 -41,75 -134,96 -198,40"/>
   <path class="fil0 str0" d="M7519 5600l1 674c0,54 43,97 97,97l188 -1c193,0 348,-172 348,-384l0 -100c0,-212 -157,-383 -349,-383l-189 0c-53,1 -96,44 -96,97"/>
   <path class="fil0 str0" d="M8662 6160c-69,114 -221,73 -244,-51 -5,-27 -8,-45 -8,-53 0,-158 1,-316 0,-474 0,-31 -13,-53 -39,-68 -27,-15 -68,-10 -101,-10 -4,0 -6,2 -6,6 0,161 -1,322 -3,483 -1,144 23,275 154,343 215,111 420,-53 420,-280 0,-182 1,-364 1,-546 0,-4 -2,-6 -6,-6 -34,0 -76,-5 -104,11 -24,15 -37,37 -37,67 0,159 -2,318 -3,477 0,40 -8,74 -24,101"/>
   <path class="fil0 str0" d="M6080 4408l0 241c0,0 3,6 6,6l98 1c69,0 125,-53 125,-119l0 -16c0,-66 -55,-119 -124,-119l-98 0c-4,0 -7,2 -7,6"/>
   <path class="fil0 str0" d="M8189 4761c0,4 2,8 6,8l159 0c4,0 6,-4 6,-8l-79 -353c-2,-7 -11,-7 -13,0l-79 353"/>
   <path class="fil0 str0" d="M4435 5640l-1 243c0,0 6,5 6,5l100 1c68,0 124,-53 124,-117l0 -20c0,-64 -55,-117 -124,-117l-100 0c0,0 -5,5 -5,5"/>
   <path class="fil0 str0" d="M5396 5994c-1,4 2,7 6,7l158 0c4,0 7,-3 6,-7l-79 -353c-1,-7 -10,-7 -12,0l-79 353"/>
   <path class="fil0 str0" d="M7666 5646l0 582c0,7 6,12 13,12l110 0c117,0 212,-116 212,-258l0 -90c0,-143 -95,-259 -212,-259l-110 0c-7,0 -13,6 -13,13"/>
   <path class="fil1" d="M-19 3487l-138 -61c-3,-1 -3,-4 0,-5l512 -226c3,-1 5,-4 6,-7l59 -290c2,-10 4,-10 6,0l59 289c1,4 3,7 6,8l509 225c6,2 6,5 0,7l-135 60c-2,1 -2,4 0,5l500 221c19,8 19,35 0,44l-187 82c-4,2 -8,2 -12,0l-737 -325c-4,-1 -8,-1 -12,0l-738 326c-3,1 -7,1 -10,0l-189 -83c-19,-9 -19,-36 0,-44l501 -221c2,-1 2,-4 0,-5z"/>
   <path class="fil2" d="M877 3902c5,2 5,5 1,8 -206,135 -341,310 -453,529 -2,4 -4,4 -6,0 -102,-221 -254,-398 -455,-533 -1,0 -1,-2 0,-2l454 -200c3,-1 7,-1 10,0l449 198z"/>
   <path class="fil1" d="M804 7185l-28 0c-331,-14 -595,-149 -792,-403 -113,-147 -181,-313 -203,-500 -5,-44 -8,-120 -8,-229 1,-376 1,-753 0,-1129 0,-396 -335,-702 -729,-626 -4,1 -6,-1 -4,-5 9,-22 17,-39 24,-50 185,-288 525,-305 786,-105 241,186 358,494 357,792 0,407 0,815 -1,1223 0,237 138,450 352,545 397,174 800,-123 801,-542 1,-332 2,-664 2,-997 -1,-247 150,-448 410,-459 168,-8 325,100 369,270 1,3 -1,5 -4,4 -182,-18 -340,108 -340,295 -1,274 -2,549 -2,824 0,102 -4,178 -12,229 -76,491 -479,845 -978,863z"/>
   <path class="fil2" d="M741 4460c118,-257 370,-475 670,-453 177,14 321,124 394,286 2,4 1,5 -4,5 -343,-61 -654,157 -716,494 -9,44 -13,120 -13,229 0,383 0,767 0,1150 0,107 -19,216 -59,329 -1,3 -3,6 -6,8 -146,95 -327,79 -462,-19 -3,-2 -3,-5 -1,-9 75,-119 95,-222 95,-373 0,-400 1,-800 3,-1200 1,-157 34,-305 99,-447z"/>
   <path class="fil1" d="M4483 5133c0,2 -2,4 -4,4l-139 0c-2,0 -4,-2 -4,-4l0 -859c0,-2 2,-3 4,-3l139 0c2,0 4,1 4,3l0 859z"/>
   <path class="fil1" d="M6080 4794l0 337c0,4 -2,6 -6,6l-135 0c-5,0 -7,-3 -7,-7l0 -855c0,-2 2,-4 4,-4 76,0 150,0 225,0 64,0 111,6 141,17 208,80 196,394 -3,480 -3,1 -5,5 -3,8 71,139 138,253 172,354 2,3 0,5 -3,6 -72,4 -139,5 -174,-64 -49,-92 -95,-185 -140,-279 -2,-3 -4,-5 -8,-5l-57 0c-4,0 -6,2 -6,6zm0 -386l0 241c0,4 3,6 6,6l98 1c69,0 125,-53 125,-119l0 -16c0,-66 -55,-119 -124,-119l-98 0c-4,0 -7,2 -7,6z"/>
   <path class="fil1" d="M7344 5133c0,2 -1,4 -3,4l-140 0c-2,0 -3,-2 -3,-4l0 -859c0,-2 1,-3 3,-3l140 0c2,0 3,1 3,3l0 859z"/>
   <path class="fil1" d="M7629 4400l-193 1c-2,0 -4,-2 -4,-5l0 -122c0,-2 2,-4 4,-4l543 0c2,0 4,2 4,4l0 122c0,2 -2,4 -4,4l-193 1c-2,0 -4,2 -4,4l0 727c0,3 -2,5 -5,5l-140 -1c-2,0 -4,-1 -4,-4l0 -727c0,-3 -2,-5 -4,-5z"/>
   <path class="fil1" d="M3208 4961c45,-38 56,-102 56,-161 -1,-140 -1,-279 -1,-419 0,-110 51,-113 142,-109 4,0 5,2 5,6 1,255 1,440 0,554 -3,400 -560,400 -570,20 -2,-107 -3,-298 0,-575 0,-3 2,-5 6,-5 31,-1 71,-6 98,8 27,15 41,39 42,72 0,161 0,322 0,483 0,114 118,216 222,126z"/>
   <path class="fil1" d="M4021 4853c2,-3 4,-9 4,-18 -2,-186 -2,-372 -2,-557 0,-4 2,-6 6,-6l124 -1c4,0 7,3 7,7 -1,268 0,536 0,804 0,46 -49,59 -91,56 -41,-4 -70,-24 -88,-61 -85,-172 -171,-346 -258,-521 -2,-5 -6,-6 -10,-4 -2,1 -3,4 -3,10 -1,189 -1,379 0,568 0,4 -2,6 -6,6l-126 0c-3,0 -5,-1 -5,-5 1,-267 0,-535 -1,-802 0,-48 47,-63 92,-59 37,3 64,21 81,54 88,175 176,351 265,528 4,6 7,6 11,1z"/>
   <path class="fil1" d="M4901 5004c4,-1 6,-5 8,-11 54,-239 109,-477 164,-716 1,-3 4,-6 7,-6l144 0c4,0 7,4 6,8 -63,245 -125,490 -186,734 -18,70 -56,121 -134,124 -128,6 -141,-73 -169,-185 -56,-225 -113,-449 -169,-674 -1,-4 1,-7 5,-7l150 0c1,0 3,1 3,3l164 726c1,4 4,5 7,4z"/>
   <path class="fil1" d="M5476 4614l291 0c3,0 5,2 5,5l0 115c0,2 -2,4 -5,4l-289 0c-5,0 -7,3 -7,7l0 253c0,4 2,7 6,7l299 0c4,0 5,1 6,5l0 120c0,4 -2,6 -6,6 -112,1 -225,1 -337,0 -35,0 -61,-5 -77,-15 -26,-16 -40,-42 -40,-77 0,-256 1,-512 1,-768 0,-3 2,-5 5,-5l449 0c4,0 6,3 6,7l0 119c0,4 -3,6 -6,6l-301 0c-4,0 -6,3 -6,7l-1 197c0,4 3,7 7,7z"/>
   <path class="fil1" d="M6938 4435c-65,-36 -113,-57 -185,-25 -79,34 -74,124 -3,163 72,39 148,73 214,122 98,74 138,208 72,317 -100,168 -391,158 -504,12 -1,-2 -1,-4 0,-6 23,-30 57,-64 100,-54 27,6 63,33 91,42 76,23 176,2 195,-83 16,-74 -32,-118 -93,-149 -134,-69 -326,-156 -262,-350 26,-76 82,-124 168,-143 131,-29 241,6 332,104 2,3 2,5 0,8 -33,36 -77,68 -125,42z"/>
   <path class="fil1" d="M8384 4886l-215 -1c-5,0 -8,3 -9,7l-52 238c-1,4 -4,6 -8,6l-144 1c-5,0 -6,-3 -5,-7 56,-228 112,-453 167,-675 29,-117 44,-200 183,-183 69,8 99,62 114,124 61,245 123,489 184,734 1,4 0,7 -5,7l-143 0c-3,0 -6,-2 -6,-6l-55 -240c-1,-3 -3,-5 -6,-5zm-195 -125c-1,4 2,8 6,8l159 0c4,0 7,-4 6,-8l-79 -353c-2,-7 -11,-7 -13,0l-79 353z"/>
   <path class="fil1" d="M9001 4408c-61,-24 -113,-19 -157,15 -61,47 -39,119 22,151 124,68 280,121 311,281 24,124 -54,229 -173,265 -121,36 -274,9 -357,-93 -3,-3 -3,-6 0,-9 58,-84 102,-55 174,-17 23,11 50,16 83,14 62,-4 118,-34 129,-98 12,-79 -45,-119 -109,-150 -69,-33 -127,-67 -174,-103 -106,-82 -116,-245 -12,-332 33,-28 76,-46 129,-55 118,-20 221,15 309,106 3,3 3,6 0,9 -23,27 -62,57 -98,53 -26,-4 -54,-29 -77,-37z"/>
   <path class="fil3" d="M6080 4408c0,-4 3,-6 7,-6l98 0c69,0 124,53 124,119l0 16c0,66 -56,119 -125,119l-98 -1c-3,0 -6,-2 -6,-6l0 -241z"/>
   <path class="fil3" d="M8189 4761l79 -353c2,-7 11,-7 13,0l79 353c1,4 -2,8 -6,8l-159 0c-4,0 -7,-4 -6,-8z"/>
   <path class="fil2" d="M82 7185l-44 0c-566,-23 -983,-466 -985,-1030 -1,-272 -2,-543 -2,-815 0,-77 -5,-132 -17,-164 -49,-138 -195,-220 -339,-201 -4,1 -6,-1 -4,-5 110,-370 605,-343 752,-26 29,61 43,132 42,212 -2,501 -2,839 -1,1012 1,172 64,317 187,433 13,12 23,27 31,42 99,221 250,397 453,530 5,3 4,5 -1,5l-72 7z"/>
   <path class="fil1" d="M9182 5645c-83,36 -68,127 4,164 118,60 272,123 307,261 31,123 -34,233 -149,277 -124,48 -289,25 -380,-85 -3,-4 -3,-7 0,-10 73,-104 116,-31 194,-10 78,21 169,2 192,-86 27,-102 -99,-155 -176,-192 -56,-26 -123,-70 -159,-126 -54,-84 -41,-198 30,-265 37,-34 85,-56 146,-65 116,-18 217,18 305,108 2,3 2,7 -1,10 -48,46 -80,69 -144,29 -52,-32 -108,-35 -169,-10z"/>
   <path class="fil1" d="M2697 5767c-1,5 -3,14 -4,27 -14,192 -29,383 -43,574 0,4 -2,6 -6,6l-129 1c-3,0 -6,-3 -5,-5 16,-264 33,-528 51,-791 4,-56 35,-65 85,-73 65,-11 127,5 146,75 46,169 91,338 135,508 3,9 4,14 6,16 9,11 15,9 19,-4 48,-183 96,-362 143,-540 17,-62 116,-61 166,-49 65,15 59,46 63,108 16,250 32,500 49,750 0,2 -2,5 -5,5l-129 0c-4,0 -6,-2 -6,-6 -14,-173 -27,-345 -39,-517 -2,-31 -5,-61 -10,-89 -1,-8 -4,-8 -8,-2 -3,5 -6,11 -8,19 -45,181 -90,361 -135,542 -6,26 -22,42 -47,48 -49,10 -122,12 -136,-46 -46,-182 -92,-368 -140,-556 -4,-15 -8,-15 -13,-1z"/>
   <path class="fil1" d="M3979 6318c-167,122 -406,19 -440,-183 -7,-41 -11,-89 -10,-145 1,-160 2,-320 2,-480 0,-4 2,-6 6,-6 32,0 72,-5 99,9 28,15 42,38 42,72 0,160 1,321 0,482 0,99 89,199 196,145 61,-30 82,-102 81,-168 0,-142 0,-285 0,-428 0,-109 48,-117 142,-111 4,0 6,2 6,6 0,182 0,363 0,545 0,103 -40,200 -124,262z"/>
   <path class="fil1" d="M4652 6003c-2,1 -2,2 -2,3l173 347c5,10 2,15 -9,16 -108,8 -145,-9 -196,-113 -37,-76 -75,-152 -112,-229 -2,-4 -5,-6 -9,-6l-56 0c-4,0 -6,3 -6,7l0 338c0,3 -2,4 -5,4l-137 0c-4,0 -6,-2 -6,-7l0 -853c0,-3 2,-5 6,-5 141,-2 233,-2 276,-1 132,4 233,104 238,235 6,125 -46,213 -155,264zm-217 -363l-1 243c0,3 3,5 6,5l100 1c68,0 124,-53 124,-117l0 -20c0,-64 -55,-117 -124,-117l-100 0c-3,0 -5,2 -5,5z"/>
   <path class="fil1" d="M5075 6366c0,2 -2,4 -4,4l-139 0c-2,0 -4,-2 -4,-4l0 -859c0,-2 2,-3 4,-3l139 0c2,0 4,1 4,3l0 859z"/>
   <path class="fil1" d="M5589 6119l-215 -1c-3,0 -6,2 -6,6l-54 241c0,3 -2,4 -4,4l-149 0c-3,0 -5,-1 -4,-5 63,-254 125,-503 185,-748 18,-71 61,-109 129,-112 110,-6 133,59 158,157 59,233 118,468 177,703 1,3 0,5 -4,5l-144 0c-3,0 -6,-2 -7,-5l-54 -239c-1,-4 -3,-6 -8,-6zm-193 -125c-1,4 2,7 6,7l158 0c4,0 7,-3 6,-7l-79 -353c-1,-7 -10,-7 -12,0l-79 353z"/>
   <path class="fil1" d="M6272 5840c40,6 70,-10 91,-48 50,-94 100,-189 150,-284 1,-3 4,-4 7,-4l155 0c5,0 6,3 4,7 -82,153 -135,250 -157,291 -14,25 -35,52 -63,82 -3,3 -3,6 1,8 39,30 64,60 77,93 48,125 95,252 143,378 1,4 0,7 -5,7l-146 0c-4,0 -6,-2 -7,-5 -41,-107 -82,-212 -122,-318 -24,-62 -63,-76 -127,-70 -4,1 -6,3 -6,7l0 382c0,2 -1,3 -3,3l-138 0c-4,0 -6,-2 -6,-6l0 -853c0,-4 2,-6 6,-6l135 0c4,0 6,2 6,6l0 324c0,3 2,5 5,6z"/>
   <path class="fil1" d="M6984 6191c64,56 157,35 198,-40 15,-28 23,-62 23,-104 0,-141 0,-282 1,-424 1,-110 36,-126 140,-118 4,0 6,2 6,6 0,178 1,355 1,533 0,138 -65,265 -200,307 -157,50 -330,-46 -360,-209 -8,-43 -11,-90 -11,-141 3,-163 1,-327 1,-491 0,-4 2,-6 6,-6 86,-1 142,0 142,106 0,137 -1,274 -3,411 0,61 8,128 56,170z"/>
   <path class="fil1" d="M7519 5600c0,-53 43,-96 96,-97l189 0c192,0 349,171 349,383l0 100c1,212 -155,384 -348,384l-188 1c-54,0 -97,-43 -97,-97l-1 -674zm147 46l0 582c0,7 6,12 13,12l110 0c117,0 212,-116 212,-258l0 -90c0,-143 -95,-259 -212,-259l-110 0c-7,0 -13,6 -13,13z"/>
   <path class="fil1" d="M8418 6109c23,124 175,165 244,51 16,-27 24,-61 24,-101 2,-159 2,-318 3,-477 0,-30 13,-52 37,-67 28,-16 70,-11 104,-11 4,0 6,2 6,6 0,182 0,364 -1,546 0,227 -205,391 -420,280 -131,-68 -155,-199 -154,-343 2,-161 3,-322 3,-483 0,-4 2,-6 6,-6 33,0 74,-5 101,10 26,15 39,37 39,68 1,158 1,316 0,474 0,8 3,26 8,53z"/>
   <path class="fil3" d="M7666 5646c0,-7 6,-13 13,-13l110 0c117,0 212,116 212,259l0 90c0,142 -95,258 -212,258l-110 0c-7,0 -13,-5 -13,-12l0 -582z"/>
   <path class="fil3" d="M4435 5640c0,-3 2,-5 5,-5l100 0c69,0 124,53 124,117l0 20c0,64 -56,117 -124,117l-100 -1c-3,0 -6,-2 -6,-5l1 -243z"/>
   <path class="fil3" d="M5396 5994l79 -353c2,-7 11,-7 12,0l79 353c1,4 -2,7 -6,7l-158 0c-4,0 -7,-3 -6,-7z"/>
  </g>
 </g>
</svg>
